<svg
  xmlns="http://www.w3.org/2000/svg"
  id="emptied-logo"
  viewBox="0 0 186.41 186.41"
  fill="#e3321f"
>
  <path
    d="M126.56 114.47c-3.46-.1-6.98-.91-10.18-2.35 1.42 7.74.35 16.11-3.63 23.47 3.74 0 7.49-1.21 10.48-3.57 5.26-3.99 7.85-11.04 6.62-17.61-1.08.08-2.18.11-3.29.05Z"
  ></path>
  <path
    d="M91.42 40.25c-20.43.61-39.76 13.54-47.73 32.43-3.2 7.58-4.79 15.54-4.36 23.78.6 11.27 4.76 22.32 11.86 31.1 7.13 8.83 18.31 17.13 30.07 17.38 8.06.17 19.18-3.8 23.09-11.56.02-.04.04-.07.04-.07 2.61-3.67 4.34-8.03 4.85-12.81 1.93-16.63-11.89-31.15-28.39-31.09-9.1.03-17.89 4.25-24.33 10.72-.71.71-1.86-.14-1.41-1.04 4.81-9.61 15.81-15.55 26.45-15.67 4.12-.05 8.24.69 12.12 2.09 1.29.47 10.11 3.89 9.96 5.46.68-7.07 4.59-13.93 9.86-18.52 4.48-3.82 10.12-6.37 16.01-6.18.37.02.79.09 1.24.19.72.17.64 1.21-.09 1.29-5.38.55-10.51 4.07-13.93 7.96-4.85 5.62-8.48 14.42-5.42 21.72 2.67 6.39 10.1 9.6 16.62 9.32 2.45-.11 4.79-.69 6.96-1.63a18.4 18.4 0 0 0 5.98-4.02v.02c.3-.29.53-.61.8-.91.13-.15.27-.3.4-.46 4.72-5.59 5.42-13.14 3.71-20.11-.32-1.29-.71-2.56-1.18-3.79-.04-.11-.08-.22-.12-.32-.23-.6-.48-1.2-.73-1.79-8.8-20.45-30.05-34.15-52.31-33.49Z"
  ></path>
  <path
    d="M93.2 0C41.73 0 0 41.73 0 93.2s41.73 93.2 93.2 93.2 93.2-41.73 93.2-93.2S144.68 0 93.2 0m57.02 102.59c-1.89 2.7-4.25 5.06-6.95 6.95-.65.45-8.49 4.68-8.66 4.06 5.02 17.9-11.07 33.68-28.49 30.64a38.4 38.4 0 0 1-7.44 5.57c-6.93 3.91-15.2 5.41-23.08 4.25-.99-.18-1.98-.34-2.96-.55l-2.9-.82c-1.83-.62-3.8-1.4-5.51-2.27h-.04c-28.3-15.67-40.91-51.12-27.75-80.87 17.26-39.6 68.6-50.23 100.09-20.61 13.4 12.61 25.88 36.28 13.69 53.67Z"
  ></path>
</svg>