<?xml version="1.0" encoding="UTF-8"?>
<svg id="Capa_2" data-name="Capa 2" xmlns="http://www.w3.org/2000/svg" viewBox="0 0 47.91 47.91">
  <defs>
    <style>
      .cls-1 {
        fill: #050a10;
      }

      .cls-2 {
        fill: #e5311f;
      }
    </style>
  </defs>
  <g id="Capa_1-2" data-name="Capa 1">
    <g>
      <circle class="cls-2" cx="23.96" cy="23.96" r="23.96"/>
      <path class="cls-1" d="M35.09,12.58c-8.09-7.61-21.29-4.88-25.73,5.3-3.38,7.65-.14,16.76,7.13,20.79,0,0,0,0,0,0,0,0,0,0,0,0,.44.22.95.43,1.42.58l.75.21c.25.05.51.1.76.14,2.03.3,4.15-.09,5.93-1.09.73-.42,1.36-.9,1.91-1.43,4.48.78,8.61-3.28,7.32-7.88.04.16,2.06-.93,2.23-1.04.69-.49,1.3-1.09,1.79-1.79,3.13-4.47-.07-10.55-3.52-13.79ZM31.67,33.93c-.77.61-1.73.92-2.69.92,1.02-1.89,1.3-4.05.93-6.03.82.37,1.73.58,2.62.61.28.01.57,0,.85-.01.32,1.69-.35,3.5-1.7,4.53ZM36.51,25.64s-.07.08-.1.12c-.07.08-.13.16-.21.24,0,0,0,0,0,0-.44.44-.96.79-1.54,1.03-.56.24-1.16.39-1.79.42-1.68.07-3.59-.75-4.27-2.4-.79-1.88.15-4.14,1.39-5.58.88-1,2.2-1.9,3.58-2.04.19-.02.21-.29.02-.33-.11-.03-.22-.05-.32-.05-1.51-.05-2.96.61-4.11,1.59-1.35,1.18-2.36,2.94-2.53,4.76.04-.4-2.23-1.28-2.56-1.4-1-.36-2.06-.55-3.12-.54-2.73.03-5.56,1.56-6.8,4.03-.12.23.18.45.36.27,1.66-1.66,3.91-2.75,6.25-2.75,4.24-.02,7.79,3.72,7.3,7.99-.13,1.23-.58,2.35-1.25,3.29,0,0,0,0,0,.02-1.01,2-3.86,3.02-5.94,2.97-3.02-.06-5.9-2.2-7.73-4.47-1.82-2.26-2.89-5.1-3.05-7.99-.11-2.12.3-4.17,1.12-6.11,2.05-4.86,7.02-8.18,12.27-8.34,5.72-.17,11.18,3.35,13.45,8.61.07.15.13.31.19.46.01.03.02.06.03.08.12.32.22.64.3.97.44,1.79.26,3.73-.95,5.17Z"/>
    </g>
  </g>
</svg>