<svg viewBox="0 0 68.58 68.58" fill="#222" xmlns="http://www.w3.org/2000/svg">
  <path
    class="cls-1"
    d="M34.29 2.05c17.78 0 32.24 14.46 32.24 32.24S52.07 66.53 34.29 66.53 2.05 52.07 2.05 34.29 16.51 2.05 34.29 2.05m0-2.05C15.35 0 0 15.35 0 34.29s15.35 34.29 34.29 34.29 34.29-15.35 34.29-34.29S53.23 0 34.29 0"
  >
  </path>
  <path
    class="cls-1"
    d="M50.23 18c-11.59-10.9-30.47-6.99-36.82 7.58-4.84 10.94-.2 23.99 10.21 29.75.63.32 1.35.61 2.03.84l1.07.3c.36.08.73.14 1.09.2 2.9.43 5.94-.12 8.49-1.56 1.04-.6 1.95-1.29 2.74-2.05 6.41 1.12 12.33-4.69 10.48-11.27.06.23 2.95-1.33 3.19-1.49.99-.7 1.86-1.56 2.56-2.56 4.48-6.4-.11-15.11-5.04-19.75Zm-4.89 30.57c-1.1.87-2.48 1.31-3.86 1.31 1.46-2.71 1.86-5.79 1.34-8.64 1.18.53 2.47.83 3.75.87.41.02.81.01 1.21-.02.45 2.41-.5 5.01-2.44 6.48m6.92-11.87c-.05.06-.1.11-.15.17-.1.11-.19.23-.3.34a6.8 6.8 0 0 1-2.2 1.48c-.8.35-1.66.56-2.56.6-2.4.1-5.13-1.08-6.12-3.43-1.12-2.68.21-5.92 2-7.99 1.26-1.43 3.15-2.72 5.13-2.93.27-.03.3-.41.03-.47-.16-.04-.32-.07-.46-.07-2.17-.07-4.24.87-5.89 2.27-1.94 1.69-3.38 4.21-3.63 6.81.06-.58-3.19-1.84-3.66-2.01-1.43-.51-2.94-.79-4.46-.77-3.91.04-7.96 2.23-9.73 5.76-.17.33.26.64.52.38 2.37-2.38 5.6-3.93 8.95-3.94 6.07-.02 11.15 5.32 10.45 11.44a9.9 9.9 0 0 1-1.78 4.71l-.01.03c-1.44 2.86-5.53 4.32-8.5 4.25-4.33-.09-8.44-3.15-11.06-6.39-2.61-3.23-4.14-7.3-4.36-11.44-.16-3.03.43-5.96 1.6-8.75C19 19.8 26.12 15.04 33.63 14.82c8.19-.24 16.01 4.8 19.25 12.32l.27.66c.02.04.03.08.05.12.17.45.32.92.43 1.39.63 2.57.37 5.34-1.36 7.4Z"
  >
  </path>
</svg>